<svg width="25" height="25" viewBox="0 0 25 25" fill="none" xmlns="http://www.w3.org/2000/svg">
<path d="M13.1888 2.62298L13.1576 2.69589L10.1367 9.70631H7.16797C6.45964 9.70631 5.78255 9.85214 5.16797 10.1126L6.99089 5.75839L7.03255 5.65423L7.10547 5.48756C7.1263 5.42506 7.14714 5.36256 7.17839 5.31048C8.54297 2.15423 10.0846 1.43548 13.1888 2.62298Z" stroke="#636A79" stroke-width="2" stroke-linecap="round" stroke-linejoin="round"/>
<path d="M18.8024 9.91203C18.3337 9.7662 17.8337 9.70369 17.3337 9.70369H10.1357L13.1566 2.69328L13.1878 2.62036C13.3441 2.67244 13.4899 2.74536 13.6462 2.80786L15.9482 3.77661C17.2295 4.30786 18.1253 4.85994 18.667 5.52661C18.7712 5.65161 18.8545 5.7662 18.9274 5.90161C19.0212 6.04745 19.0941 6.19328 19.1357 6.34953C19.1774 6.44328 19.2087 6.53703 19.2295 6.62036C19.5107 7.49536 19.3441 8.56828 18.8024 9.91203Z" stroke="#636A79" stroke-width="2" stroke-linecap="round" stroke-linejoin="round"/>
<path d="M22.4186 14.7921V16.8233C22.4186 17.0317 22.4082 17.24 22.3978 17.4483C22.1999 21.0837 20.1686 22.9171 16.3145 22.9171H8.18945C7.93945 22.9171 7.68945 22.8962 7.44987 22.865C4.13737 22.6462 2.36654 20.8754 2.14779 17.5629C2.11654 17.3233 2.0957 17.0733 2.0957 16.8233V14.7921C2.0957 12.6983 3.36654 10.8962 5.17904 10.115C5.80404 9.85457 6.4707 9.70874 7.17904 9.70874H17.3457C17.8561 9.70874 18.3561 9.78166 18.8145 9.91707C20.8874 10.5525 22.4186 12.49 22.4186 14.7921Z" stroke="#636A79" stroke-width="2" stroke-linecap="round" stroke-linejoin="round"/>
<path d="M6.98926 5.76172L5.16634 10.1159C3.35384 10.8971 2.08301 12.6992 2.08301 14.793V11.7409C2.08301 8.78255 4.18717 6.3138 6.98926 5.76172Z" stroke="#636A79" stroke-width="2" stroke-linecap="round" stroke-linejoin="round"/>
<path d="M22.4147 11.7331V14.7852C22.4147 12.4935 20.8939 10.5456 18.8105 9.92057C19.3522 8.56641 19.5085 7.50391 19.248 6.61849C19.2272 6.52474 19.196 6.43099 19.1543 6.34766C21.0918 7.34766 22.4147 9.39974 22.4147 11.7331Z" stroke="#636A79" stroke-width="1.5" stroke-linecap="round" stroke-linejoin="round"/>
</svg>
