<svg width="25" height="25" viewBox="0 0 25 25" fill="none" xmlns="http://www.w3.org/2000/svg">
<path d="M22.9167 15.625C22.9167 19.6562 19.6562 22.9167 15.625 22.9167L16.7188 21.0937" stroke="#636A79" stroke-width="2" stroke-linecap="round" stroke-linejoin="round"/>
<path d="M2.08301 9.37492C2.08301 5.34367 5.34342 2.08325 9.37468 2.08325L8.28092 3.90617" stroke="#636A79" stroke-width="2" stroke-linecap="round" stroke-linejoin="round"/>
<path d="M14.2705 4.63525L18.4163 7.03107L22.5205 4.64568" stroke="#636A79" stroke-width="2" stroke-linecap="round" stroke-linejoin="round"/>
<path d="M18.416 11.2708V7.02075" stroke="#636A79" stroke-width="2" stroke-linecap="round" stroke-linejoin="round"/>
<path d="M17.4375 2.302L14.9375 3.68737C14.375 3.99987 13.9062 4.79153 13.9062 5.43737V8.08324C13.9062 8.72907 14.3646 9.52073 14.9375 9.83323L17.4375 11.2187C17.9687 11.5208 18.8437 11.5208 19.3854 11.2187L21.8854 9.83323C22.4479 9.52073 22.9167 8.72907 22.9167 8.08324V5.43737C22.9167 4.79153 22.4583 3.99987 21.8854 3.68737L19.3854 2.302C18.8542 2.01034 17.9792 2.01034 17.4375 2.302Z" stroke="#636A79" stroke-width="2" stroke-linecap="round" stroke-linejoin="round"/>
<path d="M2.44727 16.0938L6.58268 18.4896L10.6973 16.1042" stroke="#636A79" stroke-width="2" stroke-linecap="round" stroke-linejoin="round"/>
<path d="M6.58301 22.7293V18.4792" stroke="#636A79" stroke-width="2" stroke-linecap="round" stroke-linejoin="round"/>
<path d="M5.61426 13.7605L3.11426 15.1459C2.55176 15.4584 2.08301 16.25 2.08301 16.8959V19.5417C2.08301 20.1876 2.54135 20.9792 3.11426 21.2917L5.61426 22.6772C6.14551 22.9792 7.0205 22.9792 7.56217 22.6772L10.0622 21.2917C10.6247 20.9792 11.0934 20.1876 11.0934 19.5417V16.8959C11.0934 16.25 10.6351 15.4584 10.0622 15.1459L7.56217 13.7605C7.0205 13.4688 6.14551 13.4688 5.61426 13.7605Z" stroke="#636A79" stroke-width="2" stroke-linecap="round" stroke-linejoin="round"/>
</svg>
