<svg width="25" height="25" viewBox="0 0 25 25" fill="none" xmlns="http://www.w3.org/2000/svg">
<path d="M17.676 15.0418C19.1031 15.2813 20.676 15.0313 21.7802 14.2918C23.249 13.3126 23.249 11.7084 21.7802 10.7293C20.6656 9.98967 19.0719 9.73966 17.6448 9.98966M7.29069 15.0416C5.86361 15.2812 4.29069 15.0312 3.18652 14.2916C1.71777 13.3124 1.71777 11.7083 3.18652 10.7291C4.30111 9.98951 5.89485 9.7395 7.32194 9.9895M18.7496 7.45826C18.6871 7.44784 18.6142 7.44784 18.5517 7.45826C17.1142 7.40617 15.9683 6.22909 15.9683 4.77075C15.9683 3.28117 17.1663 2.08325 18.6558 2.08325C20.1454 2.08325 21.3433 3.29159 21.3433 4.77075C21.3329 6.22909 20.1871 7.40617 18.7496 7.45826ZM6.2168 7.45826C6.2793 7.44784 6.35221 7.44784 6.41471 7.45826C7.85221 7.40617 8.99805 6.22909 8.99805 4.77075C8.99805 3.28117 7.80013 2.08325 6.31055 2.08325C4.82097 2.08325 3.62305 3.29159 3.62305 4.77075C3.63346 6.22909 4.7793 7.40617 6.2168 7.45826ZM12.4997 15.2382C12.4372 15.2278 12.3643 15.2278 12.3018 15.2382C10.8643 15.1861 9.71843 14.009 9.71843 12.5507C9.71843 11.0611 10.9163 9.8632 12.4059 9.8632C13.8955 9.8632 15.0934 11.0715 15.0934 12.5507C15.083 14.009 13.9372 15.1965 12.4997 15.2382ZM9.46908 18.5201C8.00033 19.4993 8.00033 21.1034 9.46908 22.0826C11.1357 23.1972 13.8649 23.1972 15.5316 22.0826C17.0003 21.1034 17.0003 19.4993 15.5316 18.5201C13.8753 17.4159 11.1357 17.4159 9.46908 18.5201Z" stroke="#636A79" stroke-width="2" stroke-linecap="round" stroke-linejoin="round"/>
</svg>
