<svg width="25" height="25" viewBox="0 0 25 25" fill="none" xmlns="http://www.w3.org/2000/svg">
<path d="M5.20801 10.4166H7.29134C9.37468 10.4166 10.4163 9.37492 10.4163 7.29159V5.20825C10.4163 3.12492 9.37468 2.08325 7.29134 2.08325H5.20801C3.12467 2.08325 2.08301 3.12492 2.08301 5.20825V7.29159C2.08301 9.37492 3.12467 10.4166 5.20801 10.4166Z" stroke="#636A79" stroke-width="2" stroke-miterlimit="10" stroke-linecap="round" stroke-linejoin="round"/>
<path d="M17.708 10.4166H19.7913C21.8747 10.4166 22.9163 9.37492 22.9163 7.29159V5.20825C22.9163 3.12492 21.8747 2.08325 19.7913 2.08325H17.708C15.6247 2.08325 14.583 3.12492 14.583 5.20825V7.29159C14.583 9.37492 15.6247 10.4166 17.708 10.4166Z" stroke="#636A79" stroke-width="2" stroke-miterlimit="10" stroke-linecap="round" stroke-linejoin="round"/>
<path d="M17.708 22.9166H19.7913C21.8747 22.9166 22.9163 21.8749 22.9163 19.7916V17.7083C22.9163 15.6249 21.8747 14.5833 19.7913 14.5833H17.708C15.6247 14.5833 14.583 15.6249 14.583 17.7083V19.7916C14.583 21.8749 15.6247 22.9166 17.708 22.9166Z" stroke="#636A79" stroke-width="2" stroke-miterlimit="10" stroke-linecap="round" stroke-linejoin="round"/>
<path d="M5.20801 22.9166H7.29134C9.37468 22.9166 10.4163 21.8749 10.4163 19.7916V17.7083C10.4163 15.6249 9.37468 14.5833 7.29134 14.5833H5.20801C3.12467 14.5833 2.08301 15.6249 2.08301 17.7083V19.7916C2.08301 21.8749 3.12467 22.9166 5.20801 22.9166Z" stroke="#636A79" stroke-width="2" stroke-miterlimit="10" stroke-linecap="round" stroke-linejoin="round"/>
</svg>
