<svg width="20" height="20" viewBox="0 0 20 20" fill="none" xmlns="http://www.w3.org/2000/svg">
<path d="M9.1665 1.66675H7.49984C3.33317 1.66675 1.6665 3.33341 1.6665 7.50008V12.5001C1.6665 16.6667 3.33317 18.3334 7.49984 18.3334H12.4998C16.6665 18.3334 18.3332 16.6667 18.3332 12.5001V10.8334" stroke="#0A0A0A" stroke-linecap="round" stroke-linejoin="round"/>
<path d="M13.3666 2.51614L6.7999 9.08281C6.5499 9.33281 6.2999 9.82448 6.2499 10.1828L5.89157 12.6911C5.75823 13.5995 6.3999 14.2328 7.30823 14.1078L9.81657 13.7495C10.1666 13.6995 10.6582 13.4495 10.9166 13.1995L17.4832 6.63281C18.6166 5.49948 19.1499 4.18281 17.4832 2.51614C15.8166 0.849478 14.4999 1.38281 13.3666 2.51614Z" stroke="#0A0A0A" stroke-miterlimit="10" stroke-linecap="round" stroke-linejoin="round"/>
<path d="M12.4253 3.45874C12.9836 5.45041 14.542 7.00874 16.542 7.57541" stroke="#0A0A0A" stroke-miterlimit="10" stroke-linecap="round" stroke-linejoin="round"/>
</svg>
