<svg width="25" height="25" viewBox="0 0 25 25" fill="none" xmlns="http://www.w3.org/2000/svg">
<path d="M8.33301 12.7117H15.6247" stroke="#636A79" stroke-width="2" stroke-miterlimit="10" stroke-linecap="round" stroke-linejoin="round"/>
<path d="M8.33301 16.8782H12.8955" stroke="#636A79" stroke-width="2" stroke-miterlimit="10" stroke-linecap="round" stroke-linejoin="round"/>
<path d="M10.4163 6.24992H14.583C16.6663 6.24992 16.6663 5.20825 16.6663 4.16659C16.6663 2.08325 15.6247 2.08325 14.583 2.08325H10.4163C9.37467 2.08325 8.33301 2.08325 8.33301 4.16659C8.33301 6.24992 9.37467 6.24992 10.4163 6.24992Z" stroke="#636A79" stroke-width="2" stroke-miterlimit="10" stroke-linecap="round" stroke-linejoin="round"/>
<path d="M16.6667 4.19116C20.1354 4.37866 21.875 5.65991 21.875 10.4203V16.6703C21.875 20.837 20.8333 22.9203 15.625 22.9203H9.375C4.16667 22.9203 3.125 20.837 3.125 16.6703V10.4203C3.125 5.67033 4.86458 4.37866 8.33333 4.19116" stroke="#636A79" stroke-width="2" stroke-miterlimit="10" stroke-linecap="round" stroke-linejoin="round"/>
</svg>
