<svg width="28" height="28" viewBox="0 0 28 28" fill="none" xmlns="http://www.w3.org/2000/svg">
<path d="M14.0242 3.39062C10.1625 3.39062 7.02417 6.52896 7.02417 10.3906V13.7623C7.02417 14.474 6.72083 15.559 6.35917 16.1656L5.0175 18.394C4.18917 19.7706 4.76084 21.299 6.2775 21.8123C11.3058 23.4923 16.7308 23.4923 21.7592 21.8123C23.1708 21.3456 23.7892 19.6773 23.0192 18.394L21.6775 16.1656C21.3275 15.559 21.0242 14.474 21.0242 13.7623V10.3906C21.0242 6.54062 17.8742 3.39062 14.0242 3.39062Z" stroke="#747474" stroke-width="1.5" stroke-miterlimit="10" stroke-linecap="round"/>
<path d="M16.1814 3.7305C15.8197 3.6255 15.4464 3.54383 15.0614 3.49716C13.9414 3.35716 12.8681 3.43883 11.8647 3.7305C12.2031 2.86716 13.0431 2.2605 14.0231 2.2605C15.0031 2.2605 15.8431 2.86716 16.1814 3.7305Z" stroke="#747474" stroke-width="1.5" stroke-miterlimit="10" stroke-linecap="round" stroke-linejoin="round"/>
<path d="M17.523 22.2395C17.523 24.1645 15.948 25.7395 14.0229 25.7395C13.0663 25.7395 12.1796 25.3428 11.5496 24.7128C10.9196 24.0828 10.5229 23.1962 10.5229 22.2395" stroke="#747474" stroke-width="1.5" stroke-miterlimit="10"/>
</svg>
