<svg width="25" height="25" viewBox="0 0 25 25" fill="none" xmlns="http://www.w3.org/2000/svg">
<path d="M15.6247 2.08325V12.4999C15.6247 13.6458 14.6872 14.5833 13.5413 14.5833H2.08301V6.24992C2.08301 3.94784 3.94759 2.08325 6.24967 2.08325H15.6247Z" stroke="#636A79" stroke-width="2" stroke-linecap="round" stroke-linejoin="round"/>
<path d="M22.9163 14.5833V17.7083C22.9163 19.4374 21.5205 20.8333 19.7913 20.8333H18.7497C18.7497 19.6874 17.8122 18.7499 16.6663 18.7499C15.5205 18.7499 14.583 19.6874 14.583 20.8333H10.4163C10.4163 19.6874 9.47884 18.7499 8.33301 18.7499C7.18717 18.7499 6.24967 19.6874 6.24967 20.8333H5.20801C3.47884 20.8333 2.08301 19.4374 2.08301 17.7083V14.5833H13.5413C14.6872 14.5833 15.6247 13.6458 15.6247 12.4999V5.20825H17.5413C18.2913 5.20825 18.9788 5.61451 19.3538 6.26035L21.1351 9.37492H19.7913C19.2184 9.37492 18.7497 9.84367 18.7497 10.4166V13.5416C18.7497 14.1145 19.2184 14.5833 19.7913 14.5833H22.9163Z" stroke="#636A79" stroke-width="2" stroke-linecap="round" stroke-linejoin="round"/>
<path d="M8.33333 22.9167C9.48393 22.9167 10.4167 21.9839 10.4167 20.8333C10.4167 19.6827 9.48393 18.75 8.33333 18.75C7.18274 18.75 6.25 19.6827 6.25 20.8333C6.25 21.9839 7.18274 22.9167 8.33333 22.9167Z" stroke="#636A79" stroke-width="2" stroke-linecap="round" stroke-linejoin="round"/>
<path d="M16.6663 22.9167C17.8169 22.9167 18.7497 21.9839 18.7497 20.8333C18.7497 19.6827 17.8169 18.75 16.6663 18.75C15.5157 18.75 14.583 19.6827 14.583 20.8333C14.583 21.9839 15.5157 22.9167 16.6663 22.9167Z" stroke="#636A79" stroke-width="2" stroke-linecap="round" stroke-linejoin="round"/>
<path d="M22.9167 12.5V14.5833H19.7917C19.2187 14.5833 18.75 14.1146 18.75 13.5417V10.4167C18.75 9.84375 19.2187 9.375 19.7917 9.375H21.1354L22.9167 12.5Z" stroke="#636A79" stroke-width="2" stroke-linecap="round" stroke-linejoin="round"/>
</svg>
