<svg width="20" height="18" viewBox="0 0 20 18" fill="none" xmlns="http://www.w3.org/2000/svg">
<path fill-rule="evenodd" clip-rule="evenodd" d="M9.64407 0.12085C4.77813 0.12085 0.833496 3.85739 0.833496 8.46664C0.833496 13.0759 4.77813 16.8124 9.64407 16.8124C11.7252 16.8124 13.6378 16.1289 15.1454 14.986L18.0091 17.6916L18.0853 17.7537C18.3512 17.9401 18.7281 17.9189 18.9687 17.6904C19.2334 17.4391 19.2328 17.0321 18.9675 16.7814L16.1374 14.1076C17.5764 12.6222 18.4547 10.6416 18.4547 8.46664C18.4547 3.85739 14.51 0.12085 9.64407 0.12085ZM9.64407 1.40633C13.7605 1.40633 17.0976 4.56734 17.0976 8.46664C17.0976 12.3659 13.7605 15.527 9.64407 15.527C5.52761 15.527 2.19056 12.3659 2.19056 8.46664C2.19056 4.56734 5.52761 1.40633 9.64407 1.40633Z" fill="#0A0A0A"/>
</svg>
