<svg width="25" height="25" viewBox="0 0 25 25" fill="none" xmlns="http://www.w3.org/2000/svg">
<path d="M12.5 15.625C14.2259 15.625 15.625 14.2259 15.625 12.5C15.625 10.7741 14.2259 9.375 12.5 9.375C10.7741 9.375 9.375 10.7741 9.375 12.5C9.375 14.2259 10.7741 15.625 12.5 15.625Z" stroke="#636A79" stroke-width="2" stroke-miterlimit="10" stroke-linecap="round" stroke-linejoin="round"/>
<path d="M2.08301 13.418V11.5847C2.08301 10.5014 2.96842 9.60555 4.06217 9.60555C5.94759 9.60555 6.71842 8.27221 5.77051 6.63679C5.22884 5.69929 5.55176 4.48054 6.49967 3.93888L8.30176 2.90763C9.12467 2.41804 10.1872 2.70971 10.6768 3.53263L10.7913 3.73054C11.7288 5.36596 13.2705 5.36596 14.2184 3.73054L14.333 3.53263C14.8226 2.70971 15.8851 2.41804 16.708 2.90763L18.5101 3.93888C19.458 4.48054 19.7809 5.69929 19.2393 6.63679C18.2913 8.27221 19.0622 9.60555 20.9476 9.60555C22.0309 9.60555 22.9268 10.491 22.9268 11.5847V13.418C22.9268 14.5014 22.0413 15.3972 20.9476 15.3972C19.0622 15.3972 18.2913 16.7305 19.2393 18.366C19.7809 19.3139 19.458 20.5222 18.5101 21.0639L16.708 22.0951C15.8851 22.5847 14.8226 22.293 14.333 21.4701L14.2184 21.2722C13.2809 19.6368 11.7393 19.6368 10.7913 21.2722L10.6768 21.4701C10.1872 22.293 9.12467 22.5847 8.30176 22.0951L6.49967 21.0639C5.55176 20.5222 5.22884 19.3035 5.77051 18.366C6.71842 16.7305 5.94759 15.3972 4.06217 15.3972C2.96842 15.3972 2.08301 14.5014 2.08301 13.418Z" stroke="#636A79" stroke-width="2" stroke-miterlimit="10" stroke-linecap="round" stroke-linejoin="round"/>
</svg>
