<svg width="25" height="25" viewBox="0 0 25 25" fill="none" xmlns="http://www.w3.org/2000/svg">
<path d="M15.6253 12.5001V2.08341H7.95867C8.80242 2.823 9.34408 3.89589 9.37533 5.11464C9.39616 5.89589 9.18785 6.6459 8.81285 7.28132C8.60451 7.65632 8.33366 8.00008 8.01074 8.27092C7.30241 8.948 6.35452 9.35425 5.30244 9.37508C4.01077 9.40633 2.84408 8.84383 2.08366 7.93758V14.5834M15.6253 12.5001C15.6253 13.6459 14.6878 14.5834 13.542 14.5834H2.08366M15.6253 12.5001V5.20841H17.542C18.292 5.20841 18.9795 5.61467 19.3545 6.26051L21.1357 9.37508M2.08366 14.5834V17.7084C2.08366 19.4376 3.47949 20.8334 5.20866 20.8334H6.25033M22.917 14.5834V17.7084C22.917 19.4376 21.5212 20.8334 19.792 20.8334H18.7503M22.917 14.5834H19.792C19.2191 14.5834 18.7503 14.1147 18.7503 13.5417V10.4167C18.7503 9.84383 19.2191 9.37508 19.792 9.37508H21.1357M22.917 14.5834V12.5001L21.1357 9.37508M18.7503 20.8334C18.7503 19.6876 17.8128 18.7501 16.667 18.7501M18.7503 20.8334C18.7503 21.984 17.8176 22.9167 16.667 22.9167C15.5164 22.9167 14.5837 21.984 14.5837 20.8334M18.7503 20.8334C18.7503 19.6828 17.8176 18.7501 16.667 18.7501M16.667 18.7501C15.5212 18.7501 14.5837 19.6876 14.5837 20.8334M16.667 18.7501C15.5164 18.7501 14.5837 19.6828 14.5837 20.8334M14.5837 20.8334H10.417M10.417 20.8334C10.417 19.6876 9.47949 18.7501 8.33366 18.7501M10.417 20.8334C10.417 21.984 9.48425 22.9167 8.33366 22.9167C7.18307 22.9167 6.25033 21.984 6.25033 20.8334M10.417 20.8334C10.417 19.6828 9.48425 18.7501 8.33366 18.7501M8.33366 18.7501C7.18783 18.7501 6.25033 19.6876 6.25033 20.8334M8.33366 18.7501C7.18307 18.7501 6.25033 19.6828 6.25033 20.8334M5.46908 3.90633V5.46883L4.16699 6.25008M9.37533 5.20841C9.37533 6.45841 8.82326 7.573 7.95867 8.33341C7.21909 8.97925 6.26074 9.37508 5.20866 9.37508C2.90658 9.37508 1.04199 7.5105 1.04199 5.20841C1.04199 3.89591 1.64616 2.71884 2.60449 1.95842C3.32324 1.3855 4.22949 1.04175 5.20866 1.04175C7.51074 1.04175 9.37533 2.90633 9.37533 5.20841Z" stroke="#636A79" stroke-width="2" stroke-miterlimit="10" stroke-linecap="round" stroke-linejoin="round"/>
</svg>
