<svg width="28" height="28" viewBox="0 0 28 28" fill="none" xmlns="http://www.w3.org/2000/svg">
<path d="M5.83333 11.6667C4.55 11.6667 3.5 12.7167 3.5 14.0001C3.5 15.2834 4.55 16.3334 5.83333 16.3334C7.11667 16.3334 8.16667 15.2834 8.16667 14.0001C8.16667 12.7167 7.11667 11.6667 5.83333 11.6667Z" stroke="#656565" stroke-width="1.5"/>
<path d="M22.1668 11.6667C20.8835 11.6667 19.8335 12.7167 19.8335 14.0001C19.8335 15.2834 20.8835 16.3334 22.1668 16.3334C23.4502 16.3334 24.5002 15.2834 24.5002 14.0001C24.5002 12.7167 23.4502 11.6667 22.1668 11.6667Z" stroke="#656565" stroke-width="1.5"/>
<path d="M13.9998 11.6667C12.7165 11.6667 11.6665 12.7167 11.6665 14.0001C11.6665 15.2834 12.7165 16.3334 13.9998 16.3334C15.2832 16.3334 16.3332 15.2834 16.3332 14.0001C16.3332 12.7167 15.2832 11.6667 13.9998 11.6667Z" stroke="#656565" stroke-width="1.5"/>
</svg>
