<svg width="25" height="25" viewBox="0 0 25 25" fill="none" xmlns="http://www.w3.org/2000/svg">
<path d="M17.0929 4.16659C19.1138 4.16659 20.7388 5.802 20.7388 7.81242C20.7388 9.78117 19.1763 11.3853 17.2284 11.4583C17.145 11.4478 17.0513 11.4478 16.9575 11.4583M19.1042 20.8333C19.8542 20.677 20.5625 20.3749 21.1458 19.927C22.7708 18.7083 22.7708 16.6978 21.1458 15.4791C20.5729 15.0416 19.875 14.7499 19.1354 14.5833M9.54215 11.3228C9.43799 11.3124 9.31299 11.3124 9.1984 11.3228C6.71924 11.2395 4.75049 9.20825 4.75049 6.70825C4.75049 4.15617 6.81299 2.08325 9.37549 2.08325C11.9276 2.08325 14.0005 4.15617 14.0005 6.70825C13.9901 9.20825 12.0213 11.2395 9.54215 11.3228ZM4.33398 15.1666C1.81315 16.8541 1.81315 19.6041 4.33398 21.2812C7.19857 23.1978 11.8965 23.1978 14.7611 21.2812C17.2819 19.5937 17.2819 16.8437 14.7611 15.1666C11.9069 13.2603 7.20898 13.2603 4.33398 15.1666Z" stroke="#636A79" stroke-width="2" stroke-linecap="round" stroke-linejoin="round"/>
</svg>
