<svg width="20" height="20" viewBox="0 0 20 20" fill="none" xmlns="http://www.w3.org/2000/svg">
<path d="M6.6665 10.166H12.4998" stroke="#0A0A0A" stroke-miterlimit="10" stroke-linecap="round" stroke-linejoin="round"/>
<path d="M6.6665 13.4993H10.3165" stroke="#0A0A0A" stroke-miterlimit="10" stroke-linecap="round" stroke-linejoin="round"/>
<path d="M8.33317 5.00008H11.6665C13.3332 5.00008 13.3332 4.16675 13.3332 3.33341C13.3332 1.66675 12.4998 1.66675 11.6665 1.66675H8.33317C7.49984 1.66675 6.6665 1.66675 6.6665 3.33341C6.6665 5.00008 7.49984 5.00008 8.33317 5.00008Z" stroke="#0A0A0A" stroke-miterlimit="10" stroke-linecap="round" stroke-linejoin="round"/>
<path d="M13.3333 3.34961C16.1083 3.49961 17.5 4.52461 17.5 8.33294V13.3329C17.5 16.6663 16.6667 18.3329 12.5 18.3329H7.5C3.33333 18.3329 2.5 16.6663 2.5 13.3329V8.33294C2.5 4.53294 3.89167 3.49961 6.66667 3.34961" stroke="#0A0A0A" stroke-miterlimit="10" stroke-linecap="round" stroke-linejoin="round"/>
</svg>
